<svg width="156" height="24" viewBox="0 0 156 24" fill="none" xmlns="http://www.w3.org/2000/svg">
<path d="M35.3828 3.56645H39.7296V5.40705C40.2719 4.82379 40.9295 4.35909 41.6609 4.04228C42.3923 3.72547 43.1816 3.56345 43.9789 3.56645C45.8236 3.56645 47.7733 4.19245 48.9206 5.99564C50.2779 4.15753 52.4001 3.56645 54.1698 3.56645C56.9868 3.56645 60.1538 5.02546 60.1538 10.0235V19.7777H55.8045V10.6146C55.8045 7.83624 53.8198 7.3499 52.805 7.3499C51.7902 7.3499 49.918 7.83624 49.918 10.6146V19.7777H45.5687V10.6146C45.5687 7.83624 43.619 7.3499 42.6117 7.3499C41.6043 7.3499 39.7221 7.83624 39.7221 10.6146V19.7777H35.3828V3.56645Z" fill="#043427"/>
<path d="M63.8203 11.6546C63.8203 6.95081 67.1798 3.56641 71.944 3.56641C76.7082 3.56641 80.0677 6.95081 80.0677 11.6546C80.0677 16.291 76.7432 19.7776 71.944 19.7776C67.1448 19.7776 63.8203 16.291 63.8203 11.6546ZM75.8509 11.6546C75.8509 9.32015 74.3086 7.59427 71.944 7.59427C69.5794 7.59427 68.0346 9.32015 68.0346 11.6546C68.0346 13.989 69.6119 15.7173 71.944 15.7173C74.2761 15.7173 75.8509 13.9915 75.8509 11.6546Z" fill="#043427"/>
<path d="M83.7422 3.56641H88.0915V5.33717C89.3088 4.01783 91.0135 3.56641 92.5783 3.56641C95.4678 3.56641 98.8073 5.12767 98.8073 10.0235V19.7776H94.458V10.6819C94.458 7.87111 92.4733 7.21269 91.256 7.21269C90.0387 7.21269 88.0915 7.87111 88.0915 10.6819V19.7776H83.7422V3.56641Z" fill="#043427"/>
<path d="M102.547 11.6546C102.547 7.01815 105.599 3.56641 110.313 3.56641C114.96 3.56641 117.812 7.01815 117.812 11.6546V12.8068H106.616C107.024 14.9043 108.551 16.1563 110.483 16.1563C112.553 16.1563 113.638 15.2086 114.18 14.4978L117.065 16.5977C115.707 18.5605 113.333 19.7776 110.488 19.7776C105.701 19.7776 102.547 16.291 102.547 11.6546ZM113.843 10.1332C113.468 8.30507 112.315 6.91839 110.313 6.91839C108.381 6.91839 107.091 8.16541 106.684 10.1332H113.843Z" fill="#043427"/>
<path d="M121.555 11.6546C121.555 6.93086 124.824 3.56641 129.553 3.56641C132.303 3.56641 134.553 4.79098 135.922 6.72635L132.89 9.07324C132.504 8.5912 132.011 8.20517 131.449 7.94551C130.888 7.68585 130.274 7.55965 129.656 7.57682C127.304 7.57682 125.704 9.32264 125.704 11.6546C125.704 13.9865 127.304 15.7348 129.656 15.7348C131.393 15.7348 132.31 15.019 132.89 14.3057L135.922 16.5828C134.56 18.5556 132.31 19.7776 129.553 19.7776C124.824 19.7776 121.555 16.3783 121.555 11.6546Z" fill="#043427"/>
<path d="M139.68 11.6546C139.68 6.95081 143.004 3.56641 147.718 3.56641C152.433 3.56641 155.757 6.95081 155.757 11.6546C155.757 16.291 152.478 19.7776 147.728 19.7776C142.979 19.7776 139.68 16.291 139.68 11.6546ZM151.585 11.6546C151.585 9.32015 150.058 7.59427 147.718 7.59427C145.379 7.59427 143.852 9.32015 143.852 11.6546C143.852 13.989 145.411 15.7173 147.728 15.7173C150.046 15.7173 151.585 13.9915 151.585 11.6546Z" fill="#043427"/>
<path d="M23.4666 23.9975C22.8784 23.9984 22.2965 23.878 21.7574 23.6438C21.2183 23.4096 20.7339 23.0667 20.3346 22.6368L4.50669 5.25109V18.2106L8.26212 14.2355L11.4693 17.6748L7.58364 21.7819C7.19877 22.239 6.72022 22.6088 6.18005 22.8667C5.63987 23.1246 5.05056 23.2646 4.45161 23.2773C3.93775 23.2761 3.42852 23.1806 2.94944 22.9956C1.16185 22.3053 0.000170142 20.5308 0.000170142 18.4673L0.047739 11.4492L0.000170142 5.30841C-0.00760813 4.43343 0.251475 3.57668 0.743188 2.85137C1.2349 2.12606 1.93611 1.56632 2.75415 1.24611C3.29265 1.03257 3.86695 0.922627 4.4466 0.922118C5.03596 0.917878 5.61978 1.03553 6.16108 1.26762C6.70238 1.49971 7.18935 1.84119 7.59115 2.2704L22.9509 19.1676L23.0059 11.7807L22.9759 5.55016L19.571 9.14143L16.3889 5.65234L20.3421 1.48037C20.7299 1.02465 21.2111 0.656769 21.7534 0.401438C22.2958 0.146107 22.8868 0.0092311 23.4866 0C23.8863 0.00104136 24.2836 0.0606633 24.6658 0.176947C25.5106 0.438912 26.2617 0.937636 26.8291 1.61344C27.3966 2.28923 27.7564 3.11348 27.8655 3.98754C27.883 4.10467 27.8955 4.20436 27.9005 4.30405V10.1458L27.9181 19.6012C27.9285 20.4787 27.6704 21.3386 27.178 22.0664C26.6856 22.7943 25.9823 23.3557 25.1616 23.676C24.6222 23.8896 24.0471 23.9995 23.4666 24" fill="#01986D"/>
</svg>
