<svg width="197" height="33" viewBox="0 0 197 33" fill="none" xmlns="http://www.w3.org/2000/svg">
<path d="M35.3828 3.56645H39.7296V5.40705C40.2719 4.82379 40.9295 4.35909 41.6609 4.04228C42.3923 3.72547 43.1816 3.56345 43.9789 3.56645C45.8236 3.56645 47.7733 4.19245 48.9206 5.99564C50.2779 4.15753 52.4001 3.56645 54.1698 3.56645C56.9868 3.56645 60.1538 5.02546 60.1538 10.0235V19.7777H55.8045V10.6146C55.8045 7.83624 53.8198 7.3499 52.805 7.3499C51.7902 7.3499 49.918 7.83624 49.918 10.6146V19.7777H45.5687V10.6146C45.5687 7.83624 43.619 7.3499 42.6117 7.3499C41.6043 7.3499 39.7221 7.83624 39.7221 10.6146V19.7777H35.3828V3.56645Z" fill="white"/>
<path d="M63.8203 11.6546C63.8203 6.95081 67.1798 3.56641 71.944 3.56641C76.7082 3.56641 80.0677 6.95081 80.0677 11.6546C80.0677 16.291 76.7432 19.7776 71.944 19.7776C67.1448 19.7776 63.8203 16.291 63.8203 11.6546ZM75.8509 11.6546C75.8509 9.32015 74.3086 7.59427 71.944 7.59427C69.5794 7.59427 68.0346 9.32015 68.0346 11.6546C68.0346 13.989 69.6119 15.7173 71.944 15.7173C74.2761 15.7173 75.8509 13.9915 75.8509 11.6546Z" fill="white"/>
<path d="M83.7422 3.56641H88.0915V5.33717C89.3088 4.01783 91.0135 3.56641 92.5783 3.56641C95.4678 3.56641 98.8073 5.12767 98.8073 10.0235V19.7776H94.458V10.6819C94.458 7.87111 92.4733 7.21269 91.256 7.21269C90.0387 7.21269 88.0915 7.87111 88.0915 10.6819V19.7776H83.7422V3.56641Z" fill="white"/>
<path d="M102.547 11.6546C102.547 7.01815 105.599 3.56641 110.313 3.56641C114.96 3.56641 117.812 7.01815 117.812 11.6546V12.8068H106.616C107.024 14.9043 108.551 16.1563 110.483 16.1563C112.553 16.1563 113.638 15.2086 114.18 14.4978L117.065 16.5977C115.707 18.5605 113.333 19.7776 110.488 19.7776C105.701 19.7776 102.547 16.291 102.547 11.6546ZM113.843 10.1332C113.468 8.30507 112.315 6.91839 110.313 6.91839C108.381 6.91839 107.091 8.16541 106.684 10.1332H113.843Z" fill="white"/>
<path d="M121.555 11.6546C121.555 6.93086 124.824 3.56641 129.553 3.56641C132.303 3.56641 134.553 4.79098 135.922 6.72635L132.89 9.07324C132.504 8.5912 132.011 8.20517 131.449 7.94551C130.888 7.68585 130.274 7.55965 129.656 7.57682C127.304 7.57682 125.704 9.32264 125.704 11.6546C125.704 13.9865 127.304 15.7348 129.656 15.7348C131.393 15.7348 132.31 15.019 132.89 14.3057L135.922 16.5828C134.56 18.5556 132.31 19.7776 129.553 19.7776C124.824 19.7776 121.555 16.3783 121.555 11.6546Z" fill="white"/>
<path d="M139.68 11.6546C139.68 6.95081 143.004 3.56641 147.718 3.56641C152.433 3.56641 155.757 6.95081 155.757 11.6546C155.757 16.291 152.478 19.7776 147.728 19.7776C142.979 19.7776 139.68 16.291 139.68 11.6546ZM151.585 11.6546C151.585 9.32015 150.058 7.59427 147.718 7.59427C145.379 7.59427 143.852 9.32015 143.852 11.6546C143.852 13.989 145.411 15.7173 147.728 15.7173C150.046 15.7173 151.585 13.9915 151.585 11.6546Z" fill="white"/>
<path d="M23.4666 23.9975C22.8784 23.9984 22.2965 23.878 21.7574 23.6438C21.2183 23.4096 20.7339 23.0667 20.3346 22.6368L4.50669 5.25109V18.2106L8.26212 14.2355L11.4693 17.6748L7.58364 21.7819C7.19877 22.239 6.72022 22.6088 6.18005 22.8667C5.63987 23.1246 5.05056 23.2646 4.45161 23.2773C3.93775 23.2761 3.42852 23.1806 2.94944 22.9956C1.16185 22.3053 0.000170142 20.5308 0.000170142 18.4673L0.047739 11.4492L0.000170142 5.30841C-0.00760813 4.43343 0.251475 3.57668 0.743188 2.85137C1.2349 2.12606 1.93611 1.56632 2.75415 1.24611C3.29265 1.03257 3.86695 0.922627 4.4466 0.922118C5.03596 0.917878 5.61978 1.03553 6.16108 1.26762C6.70238 1.49971 7.18935 1.84119 7.59115 2.2704L22.9509 19.1676L23.0059 11.7807L22.9759 5.55016L19.571 9.14143L16.3889 5.65234L20.3421 1.48037C20.7299 1.02465 21.2111 0.656769 21.7534 0.401438C22.2958 0.146107 22.8868 0.0092311 23.4866 0C23.8863 0.00104136 24.2836 0.0606633 24.6658 0.176947C25.5106 0.438912 26.2617 0.937636 26.8291 1.61344C27.3966 2.28923 27.7564 3.11348 27.8655 3.98754C27.883 4.10467 27.8955 4.20436 27.9005 4.30405V10.1458L27.9181 19.6012C27.9285 20.4787 27.6704 21.3386 27.178 22.0664C26.6856 22.7943 25.9823 23.3557 25.1616 23.676C24.6222 23.8896 24.0471 23.9995 23.4666 24" fill="white"/>
<path d="M162.82 28.5V26.6H166.639C167.31 26.6 167.83 26.391 168.197 25.973C168.564 25.555 168.748 25.0737 168.748 24.529C168.748 24.1617 168.666 23.8197 168.501 23.503C168.336 23.1863 168.096 22.933 167.779 22.743C167.462 22.553 167.082 22.458 166.639 22.458H162.82V20.558H166.316C166.886 20.558 167.342 20.4123 167.684 20.121C168.026 19.8297 168.197 19.399 168.197 18.829C168.197 18.259 168.026 17.8283 167.684 17.537C167.342 17.2457 166.886 17.1 166.316 17.1H162.82V15.2H166.373C167.272 15.2 168.02 15.3647 168.615 15.694C169.21 16.0233 169.654 16.4477 169.945 16.967C170.236 17.4863 170.382 18.0437 170.382 18.639C170.382 19.3357 170.186 19.95 169.793 20.482C169.413 21.014 168.849 21.4447 168.102 21.774L168.273 21.09C169.109 21.432 169.761 21.9133 170.23 22.534C170.699 23.1547 170.933 23.883 170.933 24.719C170.933 25.403 170.762 26.03 170.42 26.6C170.091 27.17 169.597 27.6323 168.938 27.987C168.292 28.329 167.494 28.5 166.544 28.5H162.82ZM161.319 28.5V15.2H163.504V28.5H161.319ZM172.853 28.5V14.82H174.943V28.5H172.853ZM181.449 28.69C180.563 28.69 179.758 28.481 179.036 28.063C178.314 27.6323 177.738 27.056 177.307 26.334C176.889 25.612 176.68 24.8077 176.68 23.921C176.68 23.0343 176.889 22.2363 177.307 21.527C177.738 20.8177 178.314 20.254 179.036 19.836C179.758 19.4053 180.563 19.19 181.449 19.19C182.349 19.19 183.159 19.399 183.881 19.817C184.603 20.235 185.173 20.805 185.591 21.527C186.022 22.2363 186.237 23.0343 186.237 23.921C186.237 24.8077 186.022 25.612 185.591 26.334C185.173 27.056 184.603 27.6323 183.881 28.063C183.159 28.481 182.349 28.69 181.449 28.69ZM181.449 26.676C181.969 26.676 182.425 26.562 182.817 26.334C183.223 26.0933 183.533 25.764 183.748 25.346C183.976 24.928 184.09 24.453 184.09 23.921C184.09 23.389 183.976 22.9203 183.748 22.515C183.52 22.1097 183.21 21.793 182.817 21.565C182.425 21.3243 181.969 21.204 181.449 21.204C180.943 21.204 180.487 21.3243 180.081 21.565C179.689 21.793 179.378 22.1097 179.15 22.515C178.935 22.9203 178.827 23.389 178.827 23.921C178.827 24.453 178.935 24.928 179.15 25.346C179.378 25.764 179.689 26.0933 180.081 26.334C180.487 26.562 180.943 26.676 181.449 26.676ZM191.775 32.49C190.813 32.49 189.97 32.3127 189.248 31.958C188.526 31.616 187.944 31.1283 187.5 30.495L188.868 29.127C189.236 29.583 189.654 29.925 190.122 30.153C190.591 30.381 191.155 30.495 191.813 30.495C192.637 30.495 193.289 30.2797 193.77 29.849C194.252 29.431 194.492 28.8547 194.492 28.12V25.878L194.853 23.864L194.492 21.831V19.38H196.582V28.12C196.582 28.994 196.38 29.754 195.974 30.4C195.569 31.0587 195.005 31.5717 194.283 31.939C193.561 32.3063 192.725 32.49 191.775 32.49ZM191.68 28.31C190.87 28.31 190.135 28.1137 189.476 27.721C188.83 27.3157 188.317 26.7647 187.937 26.068C187.57 25.3713 187.386 24.5923 187.386 23.731C187.386 22.8697 187.57 22.097 187.937 21.413C188.317 20.729 188.83 20.1907 189.476 19.798C190.135 19.3927 190.87 19.19 191.68 19.19C192.402 19.19 193.036 19.3357 193.58 19.627C194.125 19.9183 194.549 20.3237 194.853 20.843C195.157 21.3497 195.309 21.945 195.309 22.629V24.871C195.309 25.5423 195.151 26.1377 194.834 26.657C194.53 27.1763 194.106 27.5817 193.561 27.873C193.017 28.1643 192.39 28.31 191.68 28.31ZM192.098 26.334C192.605 26.334 193.048 26.2263 193.428 26.011C193.808 25.7957 194.1 25.498 194.302 25.118C194.518 24.7253 194.625 24.2693 194.625 23.75C194.625 23.2307 194.518 22.781 194.302 22.401C194.1 22.0083 193.808 21.7043 193.428 21.489C193.048 21.2737 192.605 21.166 192.098 21.166C191.592 21.166 191.142 21.2737 190.749 21.489C190.369 21.7043 190.072 22.0083 189.856 22.401C189.641 22.781 189.533 23.2307 189.533 23.75C189.533 24.2567 189.641 24.7063 189.856 25.099C190.072 25.4917 190.369 25.7957 190.749 26.011C191.142 26.2263 191.592 26.334 192.098 26.334Z" fill="white"/>
</svg>
